<svg xmlns="http://www.w3.org/2000/svg" viewBox="0 0 1200 630" role="img" aria-labelledby="title desc">
  <title id="title">Dhurandar: Brigadier Iqbal</title>
  <desc id="desc">A dusty Lyari Town arch, armed hero, sickle, dynamite, and boss compound cover.</desc>
  <defs>
    <linearGradient id="sky" x1="0" y1="0" x2="1" y2="1">
      <stop offset="0" stop-color="#b36b3c"/>
      <stop offset="0.48" stop-color="#2d5e62"/>
      <stop offset="1" stop-color="#15110d"/>
    </linearGradient>
    <linearGradient id="road" x1="0" y1="0" x2="0" y2="1">
      <stop offset="0" stop-color="#6f695f"/>
      <stop offset="1" stop-color="#25221d"/>
    </linearGradient>
  </defs>
  <rect width="1200" height="630" fill="url(#sky)"/>
  <circle cx="980" cy="110" r="58" fill="#e9b44c" opacity=".86"/>
  <path d="M0 470 L240 340 L420 420 L620 300 L840 390 L1200 250 L1200 630 L0 630 Z" fill="#18140f" opacity=".7"/>
  <path d="M110 520 L560 260 L650 260 L1090 520 L930 630 L260 630 Z" fill="url(#road)"/>
  <g transform="translate(210 95)">
    <rect x="0" y="150" width="70" height="330" fill="#47372b"/>
    <rect x="650" y="150" width="70" height="330" fill="#47372b"/>
    <path d="M0 150 C92 10 628 10 720 150 L670 150 C590 66 130 66 50 150 Z" fill="#574233"/>
    <rect x="70" y="132" width="580" height="58" fill="#2f2720"/>
    <text x="360" y="171" text-anchor="middle" font-family="Courier New, monospace" font-size="32" fill="#fff3df" letter-spacing="4">WELCOME TO LYARI TOWN</text>
  </g>
  <g transform="translate(760 345)">
    <rect x="-30" y="62" width="60" height="130" fill="#15110d"/>
    <rect x="-60" y="-6" width="120" height="84" fill="#242018"/>
    <circle cx="0" cy="-42" r="42" fill="#8f6845"/>
    <rect x="-86" y="8" width="172" height="20" fill="#232018"/>
    <rect x="58" y="55" width="148" height="18" rx="4" fill="#1b1a17" transform="rotate(-18 58 55)"/>
    <rect x="178" y="46" width="58" height="12" rx="3" fill="#1b1a17" transform="rotate(-18 178 46)"/>
    <path d="M-80 72 C-112 95 -123 135 -94 162" fill="none" stroke="#d8d1c4" stroke-width="14" stroke-linecap="round"/>
    <path d="M-114 154 C-162 130 -176 88 -148 49" fill="none" stroke="#d8d1c4" stroke-width="10" stroke-linecap="round"/>
  </g>
  <g transform="translate(405 360)">
    <rect x="-38" y="70" width="76" height="128" fill="#2d2420"/>
    <rect x="-76" y="4" width="152" height="88" fill="#44332a"/>
    <circle cx="0" cy="-36" r="40" fill="#8b6042"/>
    <path d="M70 52 L190 10" stroke="#d34d3f" stroke-width="22" stroke-linecap="round"/>
    <path d="M184 13 C229 18 246 -18 223 -52" fill="none" stroke="#d8d1c4" stroke-width="17" stroke-linecap="round"/>
    <rect x="-96" y="48" width="72" height="26" fill="#a3302b" transform="rotate(18 -96 48)"/>
  </g>
  <g fill="#101010" opacity=".78">
    <rect x="70" y="390" width="110" height="110"/>
    <rect x="95" y="350" width="60" height="44"/>
    <rect x="1010" y="356" width="135" height="165"/>
    <rect x="1040" y="310" width="72" height="52"/>
  </g>
  <text x="72" y="104" font-family="Georgia, serif" font-size="68" fill="#fff3df">Dhurandar</text>
  <text x="78" y="160" font-family="Courier New, monospace" font-size="26" fill="#e9b44c" letter-spacing="5">BRIGADIER IQBAL</text>
</svg>
